<?xml version="1.0" encoding="UTF-8"?>
<svg id="Layer_1" data-name="Layer 1" xmlns="http://www.w3.org/2000/svg" viewBox="0 0 514.3 123.22">
  <defs>
    <style>
      .cls-1 {
        fill: #001ab5;
      }

      .cls-2 {
        fill: red;
      }
    </style>
  </defs>
  <g>
    <g>
      <path d="M238.81,82.49c-11.85,0-20.86-2.55-27.03-7.64-6.17-5.09-9.26-12.29-9.26-21.57s3.16-17.28,9.47-22.7c6.31-5.43,15.61-8.14,27.88-8.14,4.18,0,7.96.21,11.33.63,3.37.42,6.58,1.06,9.63,1.9v12.48c-3.05-.96-6.22-1.63-9.52-1.99-3.3-.36-6.69-.54-10.16-.54-7.38,0-12.75,1.49-16.12,4.48-3.37,2.98-5.05,7.61-5.05,13.88,0,5.73,1.6,9.97,4.79,12.71,3.19,2.74,7.91,4.12,14.15,4.12,4.11,0,7.94-.48,11.49-1.45v-11.03h-14.79v-9.14h29.16v28.85c-2.41,1.33-5.76,2.52-10.06,3.57-4.29,1.05-9.6,1.58-15.91,1.58Z"/>
      <path d="M290.21,81.58v-21.44l-24.58-36.81h17.88l15.32,24.15,15.32-24.15h17.88l-24.58,36.81v21.44h-17.24Z"/>
      <path d="M337.67,81.58V23.34h33.73c5.46,0,9.97.92,13.51,2.76,3.55,1.84,6.19,4.33,7.93,7.46,1.74,3.14,2.61,6.66,2.61,10.58s-.99,7.51-2.98,10.58c-1.99,3.08-4.81,5.47-8.46,7.19-3.65,1.72-8,2.58-13.04,2.58h-16.17v17.09h-17.13ZM354.8,53.27h12.34c3.62,0,6.33-.84,8.14-2.53,1.81-1.69,2.71-3.92,2.71-6.69,0-3.01-.83-5.35-2.5-7.01-1.67-1.66-4.27-2.49-7.82-2.49h-12.88v18.72Z"/>
      <path d="M425.24,82.49c-4.54,0-8.78-.29-12.72-.86s-7.33-1.4-10.16-2.49v-12.39c3.12,1.15,6.58,2.08,10.37,2.8,3.79.72,7.4,1.09,10.8,1.09,4.26,0,7.43-.33,9.52-1,2.09-.66,3.14-2.11,3.14-4.34,0-1.51-.52-2.71-1.54-3.62-1.03-.9-2.7-1.7-5-2.4-2.31-.69-5.45-1.52-9.42-2.49-4.68-1.21-8.41-2.55-11.17-4.02-2.77-1.48-4.75-3.27-5.96-5.38-1.21-2.11-1.81-4.7-1.81-7.78,0-5.55,2.34-9.8,7.02-12.75,4.68-2.95,11.6-4.43,20.75-4.43,3.97,0,7.84.26,11.6.77,3.76.51,6.81,1.1,9.15,1.76v12.48c-3.05-1.02-6.12-1.78-9.2-2.26-3.09-.48-6.08-.72-8.99-.72-3.83,0-6.93.3-9.31.9-2.38.6-3.56,1.99-3.56,4.16,0,1.27.43,2.28,1.28,3.03.85.75,2.32,1.43,4.42,2.04,2.09.6,4.95,1.33,8.57,2.17,5.6,1.27,9.9,2.79,12.88,4.57,2.98,1.78,5.04,3.83,6.17,6.15,1.13,2.32,1.7,4.93,1.7,7.82,0,5.13-2.34,9.27-7.02,12.44-4.68,3.17-11.85,4.75-21.49,4.75Z"/>
      <path d="M463.76,81.58V23.34h50.54v11.22h-33.41v12.21h29.48v11.4h-29.48v12.21h33.41v11.22h-50.54Z"/>
    </g>
    <g>
      <path d="M202.53,122.79v-28h13.35c4.88,0,8.49,1.09,10.84,3.28,2.35,2.19,3.53,5.82,3.53,10.89,0,4.78-1.16,8.28-3.48,10.5-2.32,2.22-5.95,3.33-10.9,3.33h-13.35ZM208.1,119.13h6.91c2.15,0,3.94-.27,5.37-.8,1.43-.54,2.51-1.54,3.22-3.02.72-1.48,1.07-3.59,1.07-6.35s-.32-4.88-.97-6.39c-.65-1.51-1.68-2.57-3.09-3.17-1.42-.61-3.28-.91-5.6-.91h-6.91v20.65Z"/>
      <path d="M235.72,122.79v-28h22.97v3.7h-17.39v8.48h15.5v3.65h-15.5v8.52h17.39v3.65h-22.97Z"/>
      <path d="M275.62,122.79v-28h5.58v24.35h16.88v3.65h-22.46Z"/>
      <path d="M299.15,102.83l2.71-8.48h4.86l-3.38,8.48h-4.19Z"/>
      <path d="M312.2,122.79v-28h22.97v3.7h-17.39v8.48h15.5v3.65h-15.5v8.52h17.39v3.65h-22.97Z"/>
      <path d="M349.28,123.22c-4.26,0-7.69-.46-10.28-1.39v-4.17c1.47.46,3.04.84,4.73,1.13,1.69.29,3.37.43,5.04.43,2.63,0,4.59-.26,5.91-.78,1.31-.52,1.97-1.57,1.97-3.13,0-.96-.27-1.72-.82-2.3-.55-.58-1.45-1.08-2.71-1.5-1.26-.42-3-.86-5.22-1.33-3.55-.78-6.04-1.78-7.47-2.98-1.43-1.2-2.15-2.86-2.15-4.98,0-2.46,1.06-4.39,3.17-5.78,2.11-1.39,5.27-2.09,9.46-2.09,1.91,0,3.71.12,5.4.35,1.69.23,3.01.49,3.96.78v4.17c-2.59-.84-5.46-1.26-8.59-1.26-2.46,0-4.37.28-5.73.83-1.36.55-2.05,1.55-2.05,3,0,.84.24,1.52.72,2.04.48.52,1.3.97,2.48,1.35,1.18.38,2.8.8,4.89,1.26,2.69.58,4.78,1.27,6.27,2.07,1.48.8,2.52,1.72,3.12,2.78.6,1.06.9,2.25.9,3.59,0,2.46-1.07,4.4-3.22,5.8-2.15,1.41-5.41,2.11-9.77,2.11Z"/>
      <path d="M374.2,122.79v-24.31h-10.54v-3.7h26.6v3.7h-10.49v24.31h-5.58Z"/>
      <path d="M394.71,122.79v-28h15.14c3.68,0,6.37.8,8.06,2.41,1.69,1.61,2.53,3.79,2.53,6.54,0,1.97-.58,3.65-1.74,5.04-1.16,1.39-2.83,2.36-5.01,2.91.61.38,1.09.78,1.43,1.22.34.43.68,1.02,1.02,1.74l4.14,8.13h-5.73l-4.04-7.83c-.38-.75-.83-1.29-1.36-1.61-.53-.32-1.42-.48-2.69-.48h-6.19v9.91h-5.58ZM400.28,109.05h8.08c2.01,0,3.6-.42,4.76-1.26,1.16-.84,1.74-2.19,1.74-4.04,0-3.51-1.99-5.26-5.98-5.26h-8.59v10.57Z"/>
      <path d="M425.91,122.79v-28h5.58v28h-5.58Z"/>
      <path d="M437.93,122.79v-28h22.97v3.7h-17.39v8.48h15.5v3.65h-15.5v8.52h17.39v3.65h-22.97Z"/>
    </g>
  </g>
  <polygon class="cls-2" points="77.68 75.84 34.04 75.84 34.04 84.33 52.22 84.33 52.22 114.73 25.47 114.73 25.47 64.2 77.68 11.99 77.68 0 74.15 3.52 59.4 18.26 48.29 29.36 25.47 52.2 18.7 58.97 0 77.68 0 123.22 77.68 123.22 77.68 114.74 77.68 114.74 77.68 75.84"/>
  <polygon class="cls-1" points="84.91 100.4 84.91 104.56 84.91 114.73 84.91 118.89 84.91 123.22 89.24 123.22 110.38 123.22 162.59 123.22 162.59 114.73 110.38 114.73 110.38 108.9 162.59 108.9 162.59 100.4 110.38 100.4 110.38 94.57 162.59 94.57 162.59 94.56 162.59 94.56 162.59 86.08 84.91 86.08 84.91 100.4"/>
  <polygon points="162.5 77.59 162.5 77.59 158.26 73.34 143.89 58.97 137.12 52.19 114.3 29.36 103.19 18.26 88.44 3.52 84.91 0 84.91 10.41 84.91 10.41 84.91 70.32 110.37 70.32 110.37 37.45 137.12 64.2 137.12 73.34 84.91 73.34 84.91 77.59 84.91 81.83 137.12 81.83 162.59 81.83 162.59 77.68 162.5 77.59"/>
</svg>